<svg width="15" height="15" viewBox="0 0 15 15" fill="none" xmlns="http://www.w3.org/2000/svg">
<path d="M8 4.1543C9.96875 4.1543 11.5938 5.7793 11.5938 7.74805C11.5938 9.74805 9.96875 11.3418 8 11.3418C6 11.3418 4.40625 9.74805 4.40625 7.74805C4.40625 5.7793 6 4.1543 8 4.1543ZM8 10.0918C9.28125 10.0918 10.3125 9.06055 10.3125 7.74805C10.3125 6.4668 9.28125 5.43555 8 5.43555C6.6875 5.43555 5.65625 6.4668 5.65625 7.74805C5.65625 9.06055 6.71875 10.0918 8 10.0918ZM12.5625 4.0293C12.5625 4.49805 12.1875 4.87305 11.7188 4.87305C11.25 4.87305 10.875 4.49805 10.875 4.0293C10.875 3.56055 11.25 3.18555 11.7188 3.18555C12.1875 3.18555 12.5625 3.56055 12.5625 4.0293ZM14.9375 4.87305C15 6.0293 15 9.49805 14.9375 10.6543C14.875 11.7793 14.625 12.748 13.8125 13.5918C13 14.4043 12 14.6543 10.875 14.7168C9.71875 14.7793 6.25 14.7793 5.09375 14.7168C3.96875 14.6543 3 14.4043 2.15625 13.5918C1.34375 12.748 1.09375 11.7793 1.03125 10.6543C0.96875 9.49805 0.96875 6.0293 1.03125 4.87305C1.09375 3.74805 1.34375 2.74805 2.15625 1.93555C3 1.12305 3.96875 0.873047 5.09375 0.810547C6.25 0.748047 9.71875 0.748047 10.875 0.810547C12 0.873047 13 1.12305 13.8125 1.93555C14.625 2.74805 14.875 3.74805 14.9375 4.87305ZM13.4375 11.873C13.8125 10.9668 13.7188 8.7793 13.7188 7.74805C13.7188 6.74805 13.8125 4.56055 13.4375 3.62305C13.1875 3.0293 12.7188 2.5293 12.125 2.31055C11.1875 1.93555 9 2.0293 8 2.0293C6.96875 2.0293 4.78125 1.93555 3.875 2.31055C3.25 2.56055 2.78125 3.0293 2.53125 3.62305C2.15625 4.56055 2.25 6.74805 2.25 7.74805C2.25 8.7793 2.15625 10.9668 2.53125 11.873C2.78125 12.498 3.25 12.9668 3.875 13.2168C4.78125 13.5918 6.96875 13.498 8 13.498C9 13.498 11.1875 13.5918 12.125 13.2168C12.7188 12.9668 13.2188 12.498 13.4375 11.873Z" fill="#333333"/>
</svg>
