<svg width="18" height="17" viewBox="0 0 18 17" fill="none" xmlns="http://www.w3.org/2000/svg">
<path d="M9.03237 4.03918C11.3127 4.03918 13.1949 5.92138 13.1949 8.20173C13.1949 10.5183 11.3127 12.3643 9.03237 12.3643C6.71583 12.3643 4.86983 10.5183 4.86983 8.20173C4.86983 5.92138 6.71583 4.03918 9.03237 4.03918ZM9.03237 10.9164C10.5164 10.9164 11.7109 9.72196 11.7109 8.20173C11.7109 6.71769 10.5164 5.52322 9.03237 5.52322C7.51214 5.52322 6.31767 6.71769 6.31767 8.20173C6.31767 9.72196 7.54833 10.9164 9.03237 10.9164ZM14.317 3.8944C14.317 4.43734 13.8826 4.87169 13.3397 4.87169C12.7968 4.87169 12.3624 4.43734 12.3624 3.8944C12.3624 3.35146 12.7968 2.91711 13.3397 2.91711C13.8826 2.91711 14.317 3.35146 14.317 3.8944ZM17.0679 4.87169C17.1403 6.21094 17.1403 10.2287 17.0679 11.568C16.9955 12.871 16.7059 13.9931 15.7648 14.9704C14.8237 15.9115 13.6655 16.2011 12.3624 16.2734C11.0232 16.3458 7.00539 16.3458 5.66614 16.2734C4.36308 16.2011 3.24101 15.9115 2.26371 14.9704C1.32261 13.9931 1.03305 12.871 0.960655 11.568C0.888262 10.2287 0.888262 6.21094 0.960655 4.87169C1.03305 3.56863 1.32261 2.41036 2.26371 1.46926C3.24101 0.528166 4.36308 0.238598 5.66614 0.166206C7.00539 0.0938138 11.0232 0.0938138 12.3624 0.166206C13.6655 0.238598 14.8237 0.528166 15.7648 1.46926C16.7059 2.41036 16.9955 3.56863 17.0679 4.87169ZM15.3305 12.9796C15.7648 11.9299 15.6562 9.3962 15.6562 8.20173C15.6562 7.04345 15.7648 4.50973 15.3305 3.42385C15.0409 2.73612 14.498 2.15699 13.8102 1.90362C12.7244 1.46926 10.1906 1.57785 9.03237 1.57785C7.8379 1.57785 5.30418 1.46926 4.25449 1.90362C3.53057 2.19318 2.98763 2.73612 2.69806 3.42385C2.26371 4.50973 2.3723 7.04345 2.3723 8.20173C2.3723 9.3962 2.26371 11.9299 2.69806 12.9796C2.98763 13.7035 3.53057 14.2465 4.25449 14.536C5.30418 14.9704 7.8379 14.8618 9.03237 14.8618C10.1906 14.8618 12.7244 14.9704 13.8102 14.536C14.498 14.2465 15.0771 13.7035 15.3305 12.9796Z" fill="#E7EAEE"/>
</svg>
