<svg width="17" height="17" viewBox="0 0 17 17" fill="none" xmlns="http://www.w3.org/2000/svg">
<path d="M15.7158 0.0938138C16.3312 0.0938138 16.8741 0.636754 16.8741 1.28828V15.1514C16.8741 15.8029 16.3312 16.3096 15.7158 16.3096H1.78035C1.16502 16.3096 0.658277 15.8029 0.658277 15.1514V1.28828C0.658277 0.636754 1.16502 0.0938138 1.78035 0.0938138H15.7158ZM5.54474 13.9931V6.28334H3.1558V13.9931H5.54474ZM4.35027 5.19746C5.11039 5.19746 5.72572 4.58212 5.72572 3.82201C5.72572 3.06189 5.11039 2.41036 4.35027 2.41036C3.55396 2.41036 2.93863 3.06189 2.93863 3.82201C2.93863 4.58212 3.55396 5.19746 4.35027 5.19746ZM14.5576 13.9931V9.75816C14.5576 7.69498 14.087 6.06616 11.6619 6.06616C10.5036 6.06616 9.70729 6.71769 9.38152 7.33302H9.34533V6.28334H7.06498V13.9931H9.45391V10.1925C9.45391 9.17902 9.63489 8.20173 10.9018 8.20173C12.1324 8.20173 12.1324 9.36 12.1324 10.2287V13.9931H14.5576Z" fill="#E7EAEE"/>
</svg>
