<svg width="14" height="15" viewBox="0 0 14 15" fill="none" xmlns="http://www.w3.org/2000/svg">
<path d="M13 0.748047C13.5312 0.748047 14 1.2168 14 1.7793V13.748C14 14.3105 13.5312 14.748 13 14.748H0.96875C0.4375 14.748 0 14.3105 0 13.748V1.7793C0 1.2168 0.4375 0.748047 0.96875 0.748047H13ZM4.21875 12.748V6.0918H2.15625V12.748H4.21875ZM3.1875 5.1543C3.84375 5.1543 4.375 4.62305 4.375 3.9668C4.375 3.31055 3.84375 2.74805 3.1875 2.74805C2.5 2.74805 1.96875 3.31055 1.96875 3.9668C1.96875 4.62305 2.5 5.1543 3.1875 5.1543ZM12 12.748V9.0918C12 7.31055 11.5938 5.9043 9.5 5.9043C8.5 5.9043 7.8125 6.4668 7.53125 6.99805H7.5V6.0918H5.53125V12.748H7.59375V9.4668C7.59375 8.5918 7.75 7.74805 8.84375 7.74805C9.90625 7.74805 9.90625 8.74805 9.90625 9.49805V12.748H12Z" fill="#333333"/>
</svg>
