<svg width="16" height="14" viewBox="0 0 16 14" fill="none" xmlns="http://www.w3.org/2000/svg">
<path d="M14.3438 3.49805C14.3438 3.6543 14.3438 3.7793 14.3438 3.93555C14.3438 8.2793 11.0625 13.248 5.03125 13.248C3.15625 13.248 1.4375 12.7168 0 11.7793C0.25 11.8105 0.5 11.8418 0.78125 11.8418C2.3125 11.8418 3.71875 11.3105 4.84375 10.4355C3.40625 10.4043 2.1875 9.4668 1.78125 8.1543C2 8.18555 2.1875 8.2168 2.40625 8.2168C2.6875 8.2168 3 8.1543 3.25 8.0918C1.75 7.7793 0.625 6.4668 0.625 4.87305V4.8418C1.0625 5.0918 1.59375 5.2168 2.125 5.24805C1.21875 4.6543 0.65625 3.6543 0.65625 2.5293C0.65625 1.9043 0.8125 1.3418 1.09375 0.873047C2.71875 2.8418 5.15625 4.1543 7.875 4.31055C7.8125 4.06055 7.78125 3.81055 7.78125 3.56055C7.78125 1.74805 9.25 0.279297 11.0625 0.279297C12 0.279297 12.8438 0.654297 13.4688 1.31055C14.1875 1.1543 14.9062 0.873047 15.5312 0.498047C15.2812 1.2793 14.7812 1.9043 14.0938 2.31055C14.75 2.24805 15.4062 2.06055 15.9688 1.81055C15.5312 2.4668 14.9688 3.0293 14.3438 3.49805Z" fill="#333333"/>
</svg>
