<svg width="19" height="16" viewBox="0 0 19 16" fill="none" xmlns="http://www.w3.org/2000/svg">
<path d="M16.8478 4.43734C16.8478 4.61832 16.8478 4.7631 16.8478 4.94408C16.8478 9.97533 13.0472 15.7305 6.06138 15.7305C3.88961 15.7305 1.89883 15.1152 0.233813 14.0293C0.523382 14.0655 0.81295 14.1017 1.13871 14.1017C2.91232 14.1017 4.54114 13.4863 5.8442 12.4729C4.17918 12.4367 2.76754 11.3508 2.29699 9.83055C2.55036 9.86675 2.76754 9.90294 3.02091 9.90294C3.34667 9.90294 3.70863 9.83055 3.9982 9.75816C2.26079 9.3962 0.957734 7.87596 0.957734 6.02996V5.99377C1.46448 6.28334 2.07981 6.42812 2.69514 6.46432C1.64546 5.77659 0.99393 4.61832 0.99393 3.31526C0.99393 2.59134 1.17491 1.93981 1.50067 1.39687C3.38287 3.67722 6.20616 5.19746 9.35522 5.37844C9.28282 5.08887 9.24663 4.7993 9.24663 4.50973C9.24663 2.41036 10.9478 0.709146 13.0472 0.709146C14.1331 0.709146 15.1104 1.1435 15.8343 1.90362C16.6668 1.72264 17.4993 1.39687 18.2232 0.962519C17.9337 1.86742 17.3545 2.59134 16.5582 3.06189C17.3183 2.9895 18.0785 2.77232 18.73 2.48275C18.2232 3.24287 17.5717 3.8944 16.8478 4.43734Z" fill="#E7EAEE"/>
</svg>
