<svg width="21" height="15" viewBox="0 0 21 15" fill="none" xmlns="http://www.w3.org/2000/svg">
<path d="M20.0119 2.46005C20.4463 3.98028 20.4463 7.23792 20.4463 7.23792C20.4463 7.23792 20.4463 10.4594 20.0119 12.0158C19.7947 12.8845 19.107 13.536 18.2745 13.7532C16.7181 14.1514 10.5647 14.1514 10.5647 14.1514C10.5647 14.1514 4.37522 14.1514 2.81879 13.7532C1.98628 13.536 1.29856 12.8845 1.08138 12.0158C0.647027 10.4594 0.647027 7.23792 0.647027 7.23792C0.647027 7.23792 0.647027 3.98028 1.08138 2.46005C1.29856 1.59134 1.98628 0.903616 2.81879 0.68644C4.37522 0.252087 10.5647 0.252087 10.5647 0.252087C10.5647 0.252087 16.7181 0.252087 18.2745 0.68644C19.107 0.903616 19.7947 1.59134 20.0119 2.46005ZM8.53776 10.1698L13.6776 7.23792L8.53776 4.30604V10.1698Z" fill="#E7EAEE"/>
</svg>
