<svg width="18" height="13" viewBox="0 0 18 13" fill="none" xmlns="http://www.w3.org/2000/svg">
<path d="M17.1562 2.6543C17.5312 3.9668 17.5312 6.7793 17.5312 6.7793C17.5312 6.7793 17.5312 9.56055 17.1562 10.9043C16.9688 11.6543 16.375 12.2168 15.6562 12.4043C14.3125 12.748 9 12.748 9 12.748C9 12.748 3.65625 12.748 2.3125 12.4043C1.59375 12.2168 1 11.6543 0.8125 10.9043C0.4375 9.56055 0.4375 6.7793 0.4375 6.7793C0.4375 6.7793 0.4375 3.9668 0.8125 2.6543C1 1.9043 1.59375 1.31055 2.3125 1.12305C3.65625 0.748047 9 0.748047 9 0.748047C9 0.748047 14.3125 0.748047 15.6562 1.12305C16.375 1.31055 16.9688 1.9043 17.1562 2.6543ZM7.25 9.31055L11.6875 6.7793L7.25 4.24805V9.31055Z" fill="#333333"/>
</svg>
