<svg width="37" height="37" viewBox="0 0 37 37" fill="none" xmlns="http://www.w3.org/2000/svg">
<path d="M24.7207 6.18921H27.7207C28.5164 6.18921 29.2794 6.50528 29.842 7.06789C30.4046 7.6305 30.7207 8.39356 30.7207 9.18921V30.1892C30.7207 30.9849 30.4046 31.7479 29.842 32.3105C29.2794 32.8731 28.5164 33.1892 27.7207 33.1892H9.7207C8.92505 33.1892 8.16199 32.8731 7.59938 32.3105C7.03677 31.7479 6.7207 30.9849 6.7207 30.1892V9.18921C6.7207 8.39356 7.03677 7.6305 7.59938 7.06789C8.16199 6.50528 8.92505 6.18921 9.7207 6.18921H12.7207" stroke="#9338B6" stroke-width="3" stroke-linecap="round" stroke-linejoin="round"/>
<path d="M23.2207 3.18921H14.2207C13.3923 3.18921 12.7207 3.86078 12.7207 4.68921V7.68921C12.7207 8.51764 13.3923 9.18921 14.2207 9.18921H23.2207C24.0491 9.18921 24.7207 8.51764 24.7207 7.68921V4.68921C24.7207 3.86078 24.0491 3.18921 23.2207 3.18921Z" stroke="#9338B6" stroke-width="3" stroke-linecap="round" stroke-linejoin="round"/>
</svg>
