<svg width="37" height="37" viewBox="0 0 37 37" fill="none" xmlns="http://www.w3.org/2000/svg">
<path d="M0.868103 4.89428V32.6883C0.868103 34.8721 2.63502 36.6588 4.83867 36.6588H32.6327C34.8165 36.6588 36.6032 34.8721 36.6032 32.6883V4.89428C36.6032 2.71047 34.8165 0.923706 32.6327 0.923706H4.83867C2.63502 0.923706 0.868103 2.71047 0.868103 4.89428ZM24.6915 12.8354C24.6915 16.131 22.0312 18.7913 18.7357 18.7913C15.4401 18.7913 12.7798 16.131 12.7798 12.8354C12.7798 9.53986 15.4401 6.87956 18.7357 6.87956C22.0312 6.87956 24.6915 9.53986 24.6915 12.8354ZM6.82396 28.7177C6.82396 24.7472 14.7651 22.5633 18.7357 22.5633C22.7062 22.5633 30.6474 24.7472 30.6474 28.7177V30.703H6.82396V28.7177Z" fill="#F7F8F9"/>
</svg>
