<svg width="49" height="49" viewBox="0 0 49 49" fill="none" xmlns="http://www.w3.org/2000/svg">
<path d="M0.421387 6.24349V43.5768C0.421387 46.5102 2.79472 48.9102 5.75472 48.9102H43.0881C46.0214 48.9102 48.4214 46.5102 48.4214 43.5768V6.24349C48.4214 3.31016 46.0214 0.910156 43.0881 0.910156H5.75472C2.79472 0.910156 0.421387 3.31016 0.421387 6.24349ZM32.4214 16.9102C32.4214 21.3368 28.8481 24.9102 24.4214 24.9102C19.9947 24.9102 16.4214 21.3368 16.4214 16.9102C16.4214 12.4835 19.9947 8.91016 24.4214 8.91016C28.8481 8.91016 32.4214 12.4835 32.4214 16.9102ZM8.42139 38.2435C8.42139 32.9102 19.0881 29.9768 24.4214 29.9768C29.7547 29.9768 40.4214 32.9102 40.4214 38.2435V40.9102H8.42139V38.2435Z" fill="#310C4B"/>
</svg>
