<svg width="37" height="37" viewBox="0 0 37 37" fill="none" xmlns="http://www.w3.org/2000/svg">
<g clip-path="url(#clip0_109_4123)">
<path d="M18.6174 1.79529V34.7953" stroke="#9338B6" stroke-width="3" stroke-linecap="round" stroke-linejoin="round"/>
<path d="M26.1174 7.79529H14.8674C13.475 7.79529 12.1397 8.34841 11.1551 9.33298C10.1706 10.3175 9.61743 11.6529 9.61743 13.0453C9.61743 14.4377 10.1706 15.773 11.1551 16.7576C12.1397 17.7422 13.475 18.2953 14.8674 18.2953H22.3674C23.7598 18.2953 25.0952 18.8484 26.0797 19.833C27.0643 20.8175 27.6174 22.1529 27.6174 23.5453C27.6174 24.9377 27.0643 26.273 26.0797 27.2576C25.0952 28.2422 23.7598 28.7953 22.3674 28.7953H9.61743" stroke="#9338B6" stroke-width="3" stroke-linecap="round" stroke-linejoin="round"/>
</g>
<defs>
<clipPath id="clip0_109_4123">
<rect width="36" height="36" fill="white" transform="translate(0.617432 0.295288)"/>
</clipPath>
</defs>
</svg>
