<svg width="37" height="37" viewBox="0 0 37 37" fill="none" xmlns="http://www.w3.org/2000/svg">
<g clip-path="url(#clip0_109_4159)">
<path d="M27.4527 27.8853C24.8886 29.8398 21.7664 30.9226 18.5427 30.9753C8.04272 30.9753 2.04272 18.9753 2.04272 18.9753C3.90856 15.4981 6.49643 12.4602 9.63272 10.0653M15.3927 7.33529C16.4252 7.09361 17.4823 6.9728 18.5427 6.97529C29.0427 6.97529 35.0427 18.9753 35.0427 18.9753C34.1322 20.6787 33.0463 22.2824 31.8027 23.7603M21.7227 22.1553C21.3108 22.5974 20.8139 22.952 20.262 23.198C19.71 23.4439 19.1141 23.5762 18.5099 23.5868C17.9056 23.5975 17.3055 23.4864 16.7451 23.26C16.1848 23.0337 15.6758 22.6968 15.2485 22.2695C14.8212 21.8422 14.4843 21.3332 14.258 20.7729C14.0317 20.2125 13.9205 19.6124 13.9312 19.0082C13.9418 18.4039 14.0741 17.8081 14.32 17.2561C14.566 16.7041 14.9206 16.2073 15.3627 15.7953" stroke="#9338B6" stroke-width="3" stroke-linecap="round" stroke-linejoin="round"/>
<path d="M2.04272 2.47528L35.0427 35.4753" stroke="#9338B6" stroke-width="3" stroke-linecap="round" stroke-linejoin="round"/>
</g>
<defs>
<clipPath id="clip0_109_4159">
<rect width="36" height="36" fill="white" transform="translate(0.542725 0.975281)"/>
</clipPath>
</defs>
</svg>
