<svg width="49" height="48" viewBox="0 0 49 48" fill="none" xmlns="http://www.w3.org/2000/svg">
<g clip-path="url(#clip0_216_516)">
<path d="M36.12 8.94C35.96 8.94 35.8 8.9 35.66 8.82C31.82 6.84 28.5 6 24.52 6C20.56 6 16.8 6.94 13.38 8.82C12.9 9.08 12.3 8.9 12.02 8.42C11.76 7.94 11.94 7.32 12.42 7.06C16.14 5.04 20.22 4 24.52 4C28.78 4 32.5 4.94 36.58 7.04C37.08 7.3 37.26 7.9 37 8.38C36.82 8.74 36.48 8.94 36.12 8.94ZM7.49997 19.44C7.29997 19.44 7.09997 19.38 6.91997 19.26C6.45997 18.94 6.35997 18.32 6.67997 17.86C8.65997 15.06 11.18 12.86 14.18 11.32C20.46 8.08 28.5 8.06 34.8 11.3C37.8 12.84 40.32 15.02 42.3 17.8C42.62 18.24 42.52 18.88 42.06 19.2C41.6 19.52 40.98 19.42 40.66 18.96C38.86 16.44 36.58 14.46 33.88 13.08C28.14 10.14 20.8 10.14 15.08 13.1C12.36 14.5 10.08 16.5 8.27997 19.02C8.11997 19.3 7.81997 19.44 7.49997 19.44ZM20 43.58C19.74 43.58 19.48 43.48 19.3 43.28C17.56 41.54 16.62 40.42 15.28 38C13.9 35.54 13.18 32.54 13.18 29.32C13.18 23.38 18.26 18.54 24.5 18.54C30.74 18.54 35.82 23.38 35.82 29.32C35.82 29.88 35.38 30.32 34.82 30.32C34.26 30.32 33.82 29.88 33.82 29.32C33.82 24.48 29.64 20.54 24.5 20.54C19.36 20.54 15.18 24.48 15.18 29.32C15.18 32.2 15.82 34.86 17.04 37.02C18.32 39.32 19.2 40.3 20.74 41.86C21.12 42.26 21.12 42.88 20.74 43.28C20.52 43.48 20.26 43.58 20 43.58ZM34.34 39.88C31.96 39.88 29.86 39.28 28.14 38.1C25.16 36.08 23.38 32.8 23.38 29.32C23.38 28.76 23.82 28.32 24.38 28.32C24.94 28.32 25.38 28.76 25.38 29.32C25.38 32.14 26.82 34.8 29.26 36.44C30.68 37.4 32.34 37.86 34.34 37.86C34.82 37.86 35.62 37.8 36.42 37.66C36.96 37.56 37.48 37.92 37.58 38.48C37.68 39.02 37.32 39.54 36.76 39.64C35.62 39.86 34.62 39.88 34.34 39.88ZM30.32 44C30.24 44 30.14 43.98 30.06 43.96C26.88 43.08 24.8 41.9 22.62 39.76C19.82 36.98 18.28 33.28 18.28 29.32C18.28 26.08 21.04 23.44 24.44 23.44C27.84 23.44 30.6 26.08 30.6 29.32C30.6 31.46 32.46 33.2 34.76 33.2C37.06 33.2 38.92 31.46 38.92 29.32C38.92 21.78 32.42 15.66 24.42 15.66C18.74 15.66 13.54 18.82 11.2 23.72C10.42 25.34 10.02 27.24 10.02 29.32C10.02 30.88 10.16 33.34 11.36 36.54C11.56 37.06 11.3 37.64 10.78 37.82C10.26 38.02 9.67997 37.74 9.49997 37.24C8.51997 34.62 8.03997 32.02 8.03997 29.32C8.03997 26.92 8.49997 24.74 9.39997 22.84C12.06 17.26 17.96 13.64 24.42 13.64C33.52 13.64 40.92 20.66 40.92 29.3C40.92 32.54 38.16 35.18 34.76 35.18C31.36 35.18 28.6 32.54 28.6 29.3C28.6 27.16 26.74 25.42 24.44 25.42C22.14 25.42 20.28 27.16 20.28 29.3C20.28 32.72 21.6 35.92 24.02 38.32C25.92 40.2 27.74 41.24 30.56 42.02C31.1 42.16 31.4 42.72 31.26 43.24C31.16 43.7 30.74 44 30.32 44Z" fill="white"/>
</g>
<defs>
<clipPath id="clip0_216_516">
<rect width="48" height="48" fill="white" transform="translate(0.5)"/>
</clipPath>
</defs>
</svg>
