<svg width="48" height="48" viewBox="0 0 48 48" fill="none" xmlns="http://www.w3.org/2000/svg">
<g clip-path="url(#clip0_216_490)">
<path d="M40 12H35.64C35.86 11.38 36 10.7 36 10C36 6.68 33.32 4 30 4C27.9 4 26.08 5.08 25 6.7L24 8.04L23 6.68C21.92 5.08 20.1 4 18 4C14.68 4 12 6.68 12 10C12 10.7 12.14 11.38 12.36 12H8C5.78 12 4.02 13.78 4.02 16L4 38C4 40.22 5.78 42 8 42H40C42.22 42 44 40.22 44 38V16C44 13.78 42.22 12 40 12ZM30 8C31.1 8 32 8.9 32 10C32 11.1 31.1 12 30 12C28.9 12 28 11.1 28 10C28 8.9 28.9 8 30 8ZM18 8C19.1 8 20 8.9 20 10C20 11.1 19.1 12 18 12C16.9 12 16 11.1 16 10C16 8.9 16.9 8 18 8ZM40 38H8V34H40V38ZM40 28H8V16H18.16L14 21.66L17.24 24L22 17.52L24 14.8L26 17.52L30.76 24L34 21.66L29.84 16H40V28Z" fill="white"/>
</g>
<defs>
<clipPath id="clip0_216_490">
<rect width="48" height="48" fill="white"/>
</clipPath>
</defs>
</svg>
