<svg width="37" height="37" viewBox="0 0 37 37" fill="none" xmlns="http://www.w3.org/2000/svg">
<path d="M27.7771 32.3385C30.2624 32.3385 32.2771 30.3238 32.2771 27.8385C32.2771 25.3532 30.2624 23.3385 27.7771 23.3385C25.2918 23.3385 23.2771 25.3532 23.2771 27.8385C23.2771 30.3238 25.2918 32.3385 27.7771 32.3385Z" stroke="#9338B6" stroke-width="3" stroke-linecap="round" stroke-linejoin="round"/>
<path d="M9.7771 14.3385C12.2624 14.3385 14.2771 12.3238 14.2771 9.8385C14.2771 7.35322 12.2624 5.3385 9.7771 5.3385C7.29182 5.3385 5.2771 7.35322 5.2771 9.8385C5.2771 12.3238 7.29182 14.3385 9.7771 14.3385Z" stroke="#9338B6" stroke-width="3" stroke-linecap="round" stroke-linejoin="round"/>
<path d="M20.2771 9.8385H24.7771C25.5727 9.8385 26.3358 10.1546 26.8984 10.7172C27.461 11.2798 27.7771 12.0429 27.7771 12.8385V23.3385" stroke="#9338B6" stroke-width="3" stroke-linecap="round" stroke-linejoin="round"/>
<path d="M9.7771 14.3385V32.3385" stroke="#9338B6" stroke-width="3" stroke-linecap="round" stroke-linejoin="round"/>
</svg>
