<svg width="48" height="48" viewBox="0 0 48 48" fill="none" xmlns="http://www.w3.org/2000/svg">
<g clip-path="url(#clip0_216_503)">
<path d="M38 6H29.64C28.8 3.68 26.6 2 24 2C21.4 2 19.2 3.68 18.36 6H10C7.8 6 6 7.8 6 10V38C6 40.2 7.8 42 10 42H38C40.2 42 42 40.2 42 38V10C42 7.8 40.2 6 38 6ZM24 6C25.1 6 26 6.9 26 8C26 9.1 25.1 10 24 10C22.9 10 22 9.1 22 8C22 6.9 22.9 6 24 6ZM28 34H14V30H28V34ZM34 26H14V22H34V26ZM34 18H14V14H34V18Z" fill="white"/>
</g>
<defs>
<clipPath id="clip0_216_503">
<rect width="48" height="48" fill="white"/>
</clipPath>
</defs>
</svg>
