<svg width="37" height="37" viewBox="0 0 37 37" fill="none" xmlns="http://www.w3.org/2000/svg">
<path d="M21.9248 15.4276C20.6798 15.4276 19.6748 14.4226 19.6748 13.1776V5.67764C19.6748 4.43264 20.6798 3.42764 21.9248 3.42764C23.1698 3.42764 24.1748 4.43264 24.1748 5.67764V13.1776C24.1748 14.4226 23.1698 15.4276 21.9248 15.4276Z" stroke="#9338B6" stroke-width="3" stroke-linecap="round" stroke-linejoin="round"/>
<path d="M30.9248 15.4276H28.6748V13.1776C28.6748 11.9326 29.6798 10.9276 30.9248 10.9276C32.1698 10.9276 33.1748 11.9326 33.1748 13.1776C33.1748 14.4226 32.1698 15.4276 30.9248 15.4276Z" stroke="#9338B6" stroke-width="3" stroke-linecap="round" stroke-linejoin="round"/>
<path d="M14.4248 21.4276C15.6698 21.4276 16.6748 22.4326 16.6748 23.6776V31.1776C16.6748 32.4226 15.6698 33.4276 14.4248 33.4276C13.1798 33.4276 12.1748 32.4226 12.1748 31.1776V23.6776C12.1748 22.4326 13.1798 21.4276 14.4248 21.4276Z" stroke="#9338B6" stroke-width="3" stroke-linecap="round" stroke-linejoin="round"/>
<path d="M5.4248 21.4276H7.6748V23.6776C7.6748 24.9226 6.6698 25.9276 5.4248 25.9276C4.1798 25.9276 3.1748 24.9226 3.1748 23.6776C3.1748 22.4326 4.1798 21.4276 5.4248 21.4276Z" stroke="#9338B6" stroke-width="3" stroke-linecap="round" stroke-linejoin="round"/>
<path d="M21.1748 22.1776C21.1748 20.9326 22.1798 19.9276 23.4248 19.9276H30.9248C32.1698 19.9276 33.1748 20.9326 33.1748 22.1776C33.1748 23.4226 32.1698 24.4276 30.9248 24.4276H23.4248C22.1798 24.4276 21.1748 23.4226 21.1748 22.1776Z" stroke="#9338B6" stroke-width="3" stroke-linecap="round" stroke-linejoin="round"/>
<path d="M23.4248 28.9276H21.1748V31.1776C21.1748 32.4226 22.1798 33.4276 23.4248 33.4276C24.6698 33.4276 25.6748 32.4226 25.6748 31.1776C25.6748 29.9326 24.6698 28.9276 23.4248 28.9276Z" stroke="#9338B6" stroke-width="3" stroke-linecap="round" stroke-linejoin="round"/>
<path d="M15.1748 14.6776C15.1748 13.4326 14.1698 12.4276 12.9248 12.4276H5.4248C4.1798 12.4276 3.1748 13.4326 3.1748 14.6776C3.1748 15.9226 4.1798 16.9276 5.4248 16.9276H12.9248C14.1698 16.9276 15.1748 15.9226 15.1748 14.6776Z" stroke="#9338B6" stroke-width="3" stroke-linecap="round" stroke-linejoin="round"/>
<path d="M12.9248 7.92764H15.1748V5.67764C15.1748 4.43264 14.1698 3.42764 12.9248 3.42764C11.6798 3.42764 10.6748 4.43264 10.6748 5.67764C10.6748 6.92264 11.6798 7.92764 12.9248 7.92764Z" stroke="#9338B6" stroke-width="3" stroke-linecap="round" stroke-linejoin="round"/>
</svg>
