<svg width="37" height="37" viewBox="0 0 37 37" fill="none" xmlns="http://www.w3.org/2000/svg">
<g clip-path="url(#clip0_86_2968)">
<path d="M26.0373 32.168V29.1657C26.0373 27.5732 25.4047 26.0458 24.2786 24.9197C23.1525 23.7936 21.6252 23.161 20.0326 23.161H8.02324C6.4307 23.161 4.90338 23.7936 3.77729 24.9197C2.65119 26.0458 2.01855 27.5732 2.01855 29.1657V32.168" stroke="#9338B6" stroke-width="3.37764" stroke-linecap="round" stroke-linejoin="round"/>
<path d="M14.0281 17.1563C17.3444 17.1563 20.0328 14.4679 20.0328 11.1516C20.0328 7.8353 17.3444 5.14691 14.0281 5.14691C10.7118 5.14691 8.02344 7.8353 8.02344 11.1516C8.02344 14.4679 10.7118 17.1563 14.0281 17.1563Z" stroke="#9338B6" stroke-width="3.37764" stroke-linecap="round" stroke-linejoin="round"/>
<path d="M35.0445 32.168V29.1657C35.0435 27.8352 34.6007 26.5428 33.7856 25.4913C32.9705 24.4398 31.8292 23.6888 30.541 23.3561" stroke="#9338B6" stroke-width="3.37764" stroke-linecap="round" stroke-linejoin="round"/>
<path d="M24.5361 5.3421C25.8278 5.67281 26.9726 6.424 27.7901 7.47723C28.6077 8.53047 29.0514 9.82584 29.0514 11.1591C29.0514 12.4924 28.6077 13.7878 27.7901 14.841C26.9726 15.8943 25.8278 16.6455 24.5361 16.9762" stroke="#9338B6" stroke-width="3.37764" stroke-linecap="round" stroke-linejoin="round"/>
</g>
<defs>
<clipPath id="clip0_86_2968">
<rect width="36.0281" height="36.0281" fill="white" transform="translate(0.517578 0.643433)"/>
</clipPath>
</defs>
</svg>
